<svg xmlns="http://www.w3.org/2000/svg" xmlns:xlink="http://www.w3.org/1999/xlink" width="794" zoomAndPan="magnify" viewBox="0 0 595.5 842.249979" height="1123" preserveAspectRatio="xMidYMid meet" version="1.0"><defs><g/><clipPath id="66e9ebe317"><path d="M 127.265625 235 L 467.464844 235 L 467.464844 606 L 127.265625 606 Z M 127.265625 235 " clip-rule="nonzero"/></clipPath></defs><g clip-path="url(#66e9ebe317)"><path fill="#ffffff" d="M 304.226562 437.664062 C 303.441406 438.554688 302.316406 439.035156 300.742188 438.800781 C 287.382812 437.03125 272.527344 431.695312 271.953125 415.675781 C 271.457031 402.207031 281.894531 385.75 296.585938 385.007812 C 328.074219 383.445312 334.496094 431.890625 304.226562 437.664062 Z M 437.691406 483.417969 C 430.148438 474.105469 416.046875 450.253906 402.085938 446.675781 C 401.398438 446.878906 400.660156 446.921875 399.875 446.824219 C 378.578125 443.507812 359.621094 426.84375 362.953125 403.828125 C 364.421875 394.035156 369.375 386.628906 378.769531 382.855469 C 388.519531 378.949219 395.761719 379.386719 404.539062 382.910156 C 420.066406 372.871094 437.894531 361.746094 448.074219 345.976562 C 453.957031 336.867188 460.375 326.789062 467.425781 317.816406 C 454.449219 320.410156 441.460938 322.617188 428.542969 326.292969 C 419.269531 328.941406 409.972656 330.695312 400.769531 333.34375 C 394.980469 335.003906 385.285156 336.140625 378.863281 339.226562 C 379.453125 340.394531 379.550781 341.859375 378.726562 343.382812 C 368.878906 361.609375 344.34375 370.03125 325.921875 358.46875 C 309.121094 347.992188 306.625 323.359375 322.246094 310.273438 C 323.523438 309.203125 324.949219 308.957031 326.210938 309.203125 C 326.566406 308.558594 327.046875 307.96875 327.691406 307.488281 C 324.550781 309.78125 320.875 294.214844 319.160156 290.195312 C 315.882812 282.707031 313.484375 274.722656 310.890625 266.933594 C 307.367188 256.398438 303.539062 245.960938 301.195312 235.292969 C 297.3125 246.359375 293.253906 257.429688 288.851562 268.441406 C 283.652344 281.527344 280.222656 295.1875 274.394531 307.929688 C 275.285156 308.269531 276.109375 308.847656 276.699219 309.984375 C 281.304688 318.996094 285.613281 328.351562 282.429688 338.636719 C 279.535156 347.9375 274.738281 356.660156 266.164062 361.652344 C 258.386719 366.164062 245.644531 364.835938 237.417969 362.832031 C 228.898438 360.71875 222.917969 351.078125 219.449219 343.820312 C 219.105469 343.09375 218.996094 342.355469 218.996094 341.667969 C 204.363281 333.878906 183.488281 331.820312 167.617188 329.285156 C 154 327.074219 141.957031 319.476562 127.117188 316.882812 C 137.308594 327.855469 152.1875 337.648438 163.601562 346.660156 C 177.617188 357.742188 189.371094 369.441406 200.042969 383.746094 C 200.480469 383.652344 200.972656 383.5 201.5625 383.542969 C 218.707031 384.777344 242.65625 397.941406 239.625 418.171875 C 236.730469 437.664062 219.242188 445.949219 201.070312 446.140625 C 187.164062 460.007812 171.84375 472.445312 158.703125 487.09375 C 154.546875 491.742188 150.035156 496.351562 145.289062 500.605469 C 171.046875 495.269531 197.355469 491.113281 223.222656 487.382812 C 223.261719 486.640625 223.414062 485.914062 223.949219 485.078125 C 234.578125 469.015625 259.113281 461.773438 275.382812 473.1875 C 281.304688 477.34375 285.859375 489.398438 286.929688 496.296875 C 288.507812 506.582031 286.984375 511.972656 278.808594 518.640625 C 278.21875 519.121094 277.628906 519.421875 277 519.613281 C 283.5 548.757812 291.785156 577.355469 300.945312 605.71875 C 306.914062 575.546875 318.816406 546.398438 323.867188 516.035156 C 323.921875 515.9375 323.960938 515.882812 323.960938 515.785156 C 323.617188 515.308594 323.277344 514.757812 323.082031 514.074219 C 319.996094 504.226562 316.964844 494.828125 319.996094 484.640625 C 322.207031 477.191406 329.886719 470.675781 337.140625 468.578125 C 354.476562 463.679688 371.472656 469.015625 378.726562 485.914062 C 379.507812 487.683594 379.109375 489.34375 378.234375 490.660156 C 380.289062 495.460938 428.046875 499.628906 433.289062 500.261719 C 441.421875 501.289062 449.347656 502.757812 457.289062 504.429688 C 449.9375 497.820312 443.273438 490.222656 437.691406 483.417969 " fill-opacity="1" fill-rule="nonzero"/></g><g fill="#000000" fill-opacity="1"><g transform="translate(248.657768, 548.506542)"><g><path d="M 2.1875 -7.53125 L 0.6875 -7.53125 L 0.6875 -8.484375 L 2.1875 -8.484375 L 2.1875 -11.65625 L 3.28125 -11.65625 L 3.28125 -8.484375 L 5.015625 -8.484375 L 5.015625 -7.53125 L 3.28125 -7.53125 L 3.28125 0 L 2.1875 0 Z M 2.1875 -7.53125 "/></g></g></g></svg>