<svg xmlns="http://www.w3.org/2000/svg" xmlns:xlink="http://www.w3.org/1999/xlink" width="1920" zoomAndPan="magnify" viewBox="0 0 1440 809.999993" height="1080" preserveAspectRatio="xMidYMid meet" version="1.0"><defs><clipPath id="ec7438b2da"><path d="M 372 144 L 715.484375 144 L 715.484375 810 L 372 810 Z M 372 144 " clip-rule="nonzero"/></clipPath><clipPath id="cba80b70e6"><path d="M 427 34 L 715.484375 34 L 715.484375 202 L 427 202 Z M 427 34 " clip-rule="nonzero"/></clipPath><clipPath id="cc7dc4a6a0"><path d="M 378 282 L 494 282 L 494 347 L 378 347 Z M 378 282 " clip-rule="nonzero"/></clipPath><clipPath id="60c13cfc33"><path d="M 380.4375 281.832031 L 493.953125 285.453125 L 491.988281 347.023438 L 378.472656 343.398438 Z M 380.4375 281.832031 " clip-rule="nonzero"/></clipPath><clipPath id="55db542684"><path d="M 390.183594 282.144531 L 484.113281 285.140625 C 486.699219 285.222656 489.144531 286.328125 490.914062 288.214844 C 492.683594 290.101562 493.632812 292.609375 493.550781 295.195312 L 492.207031 337.273438 C 492.125 339.859375 491.019531 342.304688 489.132812 344.074219 C 487.246094 345.84375 484.734375 346.789062 482.152344 346.707031 L 388.21875 343.710938 C 385.632812 343.628906 383.1875 342.523438 381.417969 340.636719 C 379.648438 338.75 378.703125 336.238281 378.785156 333.65625 L 380.125 291.578125 C 380.207031 288.992188 381.316406 286.546875 383.199219 284.777344 C 385.085938 283.007812 387.597656 282.0625 390.183594 282.144531 Z M 390.183594 282.144531 " clip-rule="nonzero"/></clipPath><clipPath id="85b11eec67"><path d="M 390 335 L 506 335 L 506 400 L 390 400 Z M 390 335 " clip-rule="nonzero"/></clipPath><clipPath id="30736a0649"><path d="M 392.4375 334.757812 L 505.953125 338.378906 L 503.988281 399.949219 L 390.472656 396.328125 Z M 392.4375 334.757812 " clip-rule="nonzero"/></clipPath><clipPath id="d240d2f0b1"><path d="M 402.183594 335.070312 L 496.113281 338.066406 C 498.699219 338.148438 501.144531 339.253906 502.914062 341.140625 C 504.683594 343.027344 505.632812 345.539062 505.550781 348.121094 L 504.207031 390.199219 C 504.125 392.785156 503.019531 395.230469 501.132812 397 C 499.246094 398.769531 496.734375 399.71875 494.152344 399.632812 L 400.21875 396.636719 C 397.632812 396.554688 395.1875 395.449219 393.417969 393.5625 C 391.648438 391.675781 390.703125 389.167969 390.785156 386.582031 L 392.125 344.503906 C 392.207031 341.917969 393.316406 339.472656 395.199219 337.703125 C 397.085938 335.933594 399.597656 334.988281 402.183594 335.070312 Z M 402.183594 335.070312 " clip-rule="nonzero"/></clipPath><clipPath id="92776e2072"><path d="M 460 372 L 575 372 L 575 437 L 460 437 Z M 460 372 " clip-rule="nonzero"/></clipPath><clipPath id="15319ef8c9"><path d="M 461.65625 372.039062 L 575.171875 375.660156 L 573.207031 437.226562 L 459.691406 433.605469 Z M 461.65625 372.039062 " clip-rule="nonzero"/></clipPath><clipPath id="8c81efc9cf"><path d="M 471.402344 372.347656 L 565.332031 375.347656 C 567.917969 375.429688 570.363281 376.535156 572.132812 378.417969 C 573.902344 380.304688 574.851562 382.816406 574.769531 385.402344 L 573.425781 427.480469 C 573.34375 430.0625 572.238281 432.511719 570.351562 434.277344 C 568.464844 436.046875 565.953125 436.996094 563.371094 436.914062 L 469.4375 433.917969 C 466.851562 433.835938 464.40625 432.730469 462.636719 430.84375 C 460.867188 428.957031 459.921875 426.445312 460.003906 423.859375 L 461.34375 381.78125 C 461.429688 379.199219 462.535156 376.753906 464.417969 374.984375 C 466.304688 373.214844 468.816406 372.265625 471.402344 372.347656 Z M 471.402344 372.347656 " clip-rule="nonzero"/></clipPath><clipPath id="f9cc7d0866"><path d="M 513 412 L 634 412 L 634 477 L 513 477 Z M 513 412 " clip-rule="nonzero"/></clipPath><clipPath id="ef4a1ffafe"><path d="M 514.644531 412.488281 L 634.019531 416.296875 L 632.074219 477.292969 L 512.699219 473.484375 Z M 514.644531 412.488281 " clip-rule="nonzero"/></clipPath><clipPath id="33a4a65fe0"><path d="M 524.390625 412.796875 L 624.136719 415.980469 C 626.722656 416.0625 629.167969 417.167969 630.9375 419.054688 C 632.707031 420.941406 633.652344 423.453125 633.570312 426.035156 L 632.246094 467.542969 C 632.164062 470.128906 631.058594 472.574219 629.171875 474.34375 C 627.289062 476.113281 624.777344 477.0625 622.191406 476.976562 L 522.445312 473.796875 C 519.859375 473.714844 517.414062 472.609375 515.644531 470.722656 C 513.875 468.835938 512.925781 466.324219 513.011719 463.738281 L 514.335938 422.230469 C 514.417969 419.648438 515.523438 417.203125 517.410156 415.433594 C 519.292969 413.664062 521.804688 412.714844 524.390625 412.796875 Z M 524.390625 412.796875 " clip-rule="nonzero"/></clipPath><clipPath id="ec94ded9c7"><path d="M 405 322 L 611 322 L 611 461 L 405 461 Z M 405 322 " clip-rule="nonzero"/></clipPath><clipPath id="5bd990141a"><path d="M 428.328125 308.515625 L 625.839844 413.183594 L 589.234375 482.257812 L 391.722656 377.589844 Z M 428.328125 308.515625 " clip-rule="nonzero"/></clipPath><clipPath id="a7a45c7beb"><path d="M 557.449219 376.941406 L 462.867188 326.816406 C 453.707031 321.964844 442.992188 320.945312 433.085938 323.992188 C 423.175781 327.035156 414.878906 333.890625 410.027344 343.050781 C 405.171875 352.210938 404.15625 362.925781 407.199219 372.832031 C 410.246094 382.742188 417.101562 391.039062 426.261719 395.890625 L 520.84375 446.015625 C 541.679688 457.058594 565.253906 461.871094 588.75 459.882812 C 596.625 459.214844 603.621094 454.59375 607.324219 447.609375 C 611.023438 440.625 610.921875 432.238281 607.050781 425.34375 C 595.503906 404.785156 578.285156 387.984375 557.449219 376.941406 Z M 557.449219 376.941406 " clip-rule="nonzero"/></clipPath><clipPath id="65b0d09bed"><path d="M 696.554688 331.386719 L 715.238281 331.386719 L 715.238281 444.882812 L 696.554688 444.882812 Z M 696.554688 331.386719 " clip-rule="nonzero"/></clipPath><clipPath id="0fdceea728"><path d="M 696.554688 435.539062 L 696.554688 340.742188 C 696.554688 335.585938 700.734375 331.402344 705.894531 331.402344 C 711.054688 331.402344 715.238281 335.585938 715.238281 340.742188 L 715.238281 435.539062 C 715.238281 440.699219 711.054688 444.882812 705.894531 444.882812 C 700.734375 444.882812 696.554688 440.699219 696.554688 435.539062 Z M 696.554688 435.539062 " clip-rule="nonzero"/></clipPath></defs><g clip-path="url(#ec7438b2da)"><path fill="#000000" d="M 754.804688 795.988281 C 763.480469 789.625 770.820312 783.84375 778.527344 778.667969 C 784.261719 774.757812 790.070312 770.433594 796.507812 768.246094 C 805.089844 765.355469 805.792969 760.957031 803.410156 753.207031 C 795.851562 728.917969 787.882812 704.625 781.539062 679.964844 C 766.542969 620.742188 754.34375 560.933594 750.164062 499.859375 C 749.726562 493.445312 751.839844 486.863281 752.789062 480.425781 L 756.992188 480.039062 C 758.839844 484.507812 761.660156 488.832031 762.414062 493.496094 C 773.957031 565.816406 807.542969 628.925781 844.726562 690.460938 C 849.097656 697.75 854.957031 704.015625 859.960938 710.867188 C 863.121094 715.214844 866.402344 715.847656 870.507812 712.277344 C 884.433594 700.128906 898.117188 687.789062 912.382812 676.152344 C 923.660156 666.96875 935.882812 659 947.28125 649.988281 C 968.398438 633.300781 990.246094 617.316406 1009.882812 598.976562 C 1027.066406 582.941406 1035.402344 561.855469 1034.378906 537.441406 C 1033.433594 514.070312 1033.84375 490.652344 1033.164062 467.285156 C 1033.089844 466.03125 1033.164062 464.789062 1033.394531 463.554688 C 1033.621094 462.324219 1033.992188 461.136719 1034.507812 459.992188 C 1035.023438 458.847656 1035.671875 457.785156 1036.445312 456.800781 C 1037.222656 455.8125 1038.105469 454.9375 1039.09375 454.164062 C 1048.28125 445.566406 1056.664062 436.09375 1065.632812 426.714844 C 1066.019531 428.402344 1066.269531 430.113281 1066.386719 431.839844 C 1066.847656 466.167969 1066.386719 500.515625 1067.820312 534.792969 C 1069.398438 575.242188 1053.09375 607.839844 1024.488281 634.078125 C 1002.203125 654.53125 977.757812 672.703125 953.597656 691.019531 C 907.230469 726.171875 860.984375 761.46875 813.472656 795.1875 C 784.84375 815.472656 753.980469 832.621094 723.917969 850.792969 C 721.851562 852.03125 717.574219 851.011719 715 849.699219 C 678.0625 831.140625 643.117188 809.390625 610.160156 784.449219 C 571.808594 755.296875 531.613281 728.578125 493.363281 699.109375 C 465.085938 677.65625 438.039062 654.757812 412.214844 630.410156 C 408.921875 627.355469 405.804688 624.132812 402.863281 620.738281 C 399.921875 617.34375 397.175781 613.800781 394.621094 610.105469 C 392.0625 606.414062 389.71875 602.59375 387.578125 598.644531 C 385.4375 594.695312 383.519531 590.644531 381.824219 586.484375 C 380.125 582.328125 378.660156 578.089844 377.425781 573.773438 C 376.191406 569.457031 375.191406 565.085938 374.433594 560.660156 C 373.675781 556.234375 373.160156 551.777344 372.886719 547.296875 C 372.613281 542.816406 372.582031 538.332031 372.796875 533.847656 C 373.769531 501.683594 373.917969 469.46875 374.476562 437.28125 C 374.476562 434.851562 374.839844 432.617188 375.035156 430.359375 C 385.703125 439.105469 396.324219 447.363281 406.359375 456.304688 C 408.28125 458.027344 408.59375 462.28125 408.570312 465.363281 C 408.351562 485.40625 408.449219 505.496094 407.257812 525.488281 C 405.316406 558.210938 418.707031 584.8125 440.117188 607.550781 C 459.023438 627.617188 479.679688 645.738281 503.957031 659.730469 C 514.964844 666.046875 523.59375 676.46875 533.414062 684.898438 C 540.53125 691.019531 547.675781 697.042969 555.089844 702.898438 C 563.183594 709.214844 571.589844 715.046875 581.992188 722.820312 C 630.9375 644.523438 680.878906 567.152344 681.632812 469.371094 L 686.175781 469.664062 C 688.605469 483.632812 692.496094 497.527344 693.222656 511.59375 C 695.21875 549.925781 686.761719 587.070312 677.476562 623.921875 C 665.910156 669.835938 653.960938 715.636719 641.628906 761.324219 C 639.855469 767.90625 641.628906 770.042969 646.878906 773.105469 C 660.707031 781.121094 674.027344 790.109375 688.921875 799.390625 C 689.871094 793.753906 690.84375 789.476562 691.351562 785.152344 C 699.007812 708.703125 706.953125 632.28125 714.027344 555.804688 C 716.628906 527.675781 717.1875 499.398438 711.136719 471.4375 C 708.703125 460.554688 704.015625 451.859375 694.4375 445.445312 C 692.019531 443.921875 689.90625 442.054688 688.097656 439.84375 C 686.289062 437.632812 684.878906 435.191406 683.867188 432.519531 C 675.117188 401.886719 666.394531 371.207031 659.394531 340.207031 C 650.113281 298.910156 661.703125 273.550781 700.367188 249.136719 C 667.269531 251.566406 641.070312 244.398438 626.464844 213.863281 C 615.941406 192 618.203125 169.359375 621.605469 144.554688 C 623.917969 146.40625 626.039062 148.457031 627.972656 150.703125 C 647 180 675.554688 193.84375 708.414062 200.5 C 728.898438 204.65625 749.582031 207.789062 770.019531 212.160156 C 791.089844 216.65625 807.054688 227.78125 815.171875 248.941406 C 817.117188 253.945312 821.734375 258.292969 825.964844 262.011719 C 838.890625 273.355469 846.253906 287.738281 851.871094 304.765625 C 821.054688 291.769531 786.714844 305.933594 771.550781 329.691406 C 762.144531 344.4375 760.785156 360.492188 761.320312 376.9375 C 761.976562 396.640625 763.75 416.292969 765.039062 435.996094 C 765.328125 440.730469 765.476562 445.492188 765.789062 452.464844 C 754.003906 443.28125 748.972656 432.109375 743.214844 421.273438 C 733.6875 403.371094 723.773438 385.707031 713.808594 368 C 712.203125 365.601562 710.40625 363.359375 708.414062 361.269531 L 705.984375 361.851562 C 705.984375 366.394531 705.035156 371.207031 706.175781 375.433594 C 709.75 388.890625 713.46875 402.375 718.328125 415.394531 C 725.011719 433.417969 732.132812 451.25 730.964844 470.902344 C 727.539062 527.628906 735.605469 583.644531 740.855469 639.859375 C 745.402344 688.226562 749.242188 736.664062 753.421875 785.058594 C 753.738281 788.214844 754.246094 791.421875 754.804688 795.988281 Z M 731.597656 243.960938 C 738.449219 253.144531 743.871094 260.964844 749.996094 268.375 C 755.269531 274.667969 762.558594 276.34375 770.628906 275.175781 C 781.101562 273.644531 782.777344 269.417969 776.777344 260.601562 C 766.277344 244.664062 749.945312 245.296875 731.597656 243.960938 Z M 731.597656 243.960938 " fill-opacity="1" fill-rule="nonzero"/></g><path fill="#000000" d="M 376.175781 153.59375 C 380.890625 159.785156 385.191406 166.320312 390.34375 172.101562 C 430.660156 217.382812 478.050781 254.867188 523.546875 294.515625 C 553.921875 320.992188 583.742188 348.199219 612.566406 376.355469 C 632.832031 396.15625 643.0625 421.832031 648.582031 451.300781 C 639.808594 447.753906 632.394531 444.910156 625.105469 441.753906 C 568.164062 416.996094 514.042969 387.289062 465.074219 348.832031 C 438.632812 328.039062 412.800781 306.492188 386.773438 285.210938 C 376.371094 276.730469 371.632812 266.964844 372.386719 252.246094 C 374.0625 219.59375 372.894531 186.800781 372.894531 154.054688 Z M 376.175781 153.59375 " fill-opacity="1" fill-rule="nonzero"/><g clip-path="url(#cba80b70e6)"><path fill="#000000" d="M 427.332031 174.265625 C 433.871094 170.863281 439.871094 167.558594 445.996094 164.546875 C 507.75 134.253906 569.378906 103.695312 631.328125 73.863281 C 659.710938 60.1875 688.726562 47.820312 717.625 35.261719 C 719.394531 34.617188 721.21875 34.328125 723.101562 34.390625 C 724.984375 34.453125 726.789062 34.863281 728.511719 35.625 C 785.929688 62.980469 843.273438 90.511719 900.546875 118.222656 C 934.570312 134.691406 968.59375 151.503906 1002.617188 168.242188 C 1005.152344 169.707031 1007.582031 171.324219 1009.90625 173.097656 C 1001.71875 181.285156 994.28125 189.109375 986.285156 196.347656 C 985.105469 197.074219 983.824219 197.496094 982.445312 197.621094 C 981.0625 197.746094 979.726562 197.554688 978.4375 197.050781 C 958.09375 187.675781 937.828125 178.175781 917.679688 168.265625 C 861.445312 140.5 804.941406 113.242188 749.3125 84.261719 C 729.871094 74.179688 714.125 73.011719 694.003906 83.265625 C 643.574219 108.992188 591.714844 131.851562 540.582031 156.265625 C 518.710938 166.6875 497.128906 177.761719 475.476562 188.671875 C 467.964844 192.4375 460.625 196.613281 452.242188 201.15625 Z M 427.332031 174.265625 " fill-opacity="1" fill-rule="nonzero"/></g><path fill="#000000" d="M 372.628906 321.574219 C 450.566406 400.453125 542.746094 449.816406 648.433594 481.226562 C 632.734375 486.230469 618.59375 491.988281 603.914062 495.125 C 569.890625 502.410156 537.007812 496.507812 504.855469 484.894531 C 452.484375 465.996094 410.929688 432.714844 378.484375 387.894531 C 376.777344 385.304688 375.457031 382.527344 374.519531 379.570312 C 373.582031 376.609375 373.066406 373.578125 372.96875 370.476562 C 372.140625 354.199219 372.628906 337.875 372.628906 321.574219 Z M 372.628906 321.574219 " fill-opacity="1" fill-rule="nonzero"/><path fill="#000000" d="M 646.808594 512.757812 C 639.25 586.730469 591.277344 633.421875 538.515625 675.886719 L 504.25 642.796875 C 551.6875 599.339844 608.992188 566.785156 646.808594 512.757812 Z M 646.808594 512.757812 " fill-opacity="1" fill-rule="nonzero"/><path fill="#000000" d="M 598.589844 525.730469 C 572.953125 548.519531 546.585938 563.214844 514.601562 567.296875 C 485.753906 570.964844 463.566406 561.394531 447.1875 537.707031 C 441.941406 530.191406 437.589844 522.191406 434.136719 513.699219 C 430.683594 505.207031 428.210938 496.441406 426.726562 487.398438 C 454.015625 498.183594 481.089844 509.601562 508.671875 519.585938 C 537.15625 529.886719 566.902344 528.550781 598.589844 525.730469 Z M 598.589844 525.730469 " fill-opacity="1" fill-rule="nonzero"/><path stroke-linecap="butt" transform="matrix(0, -0.75, 0.75, 0, 372.097987, 367.351672)" fill="none" stroke-linejoin="miter" d="M 0.000145892 8.49956 L 247.687658 8.49956 " stroke="#000000" stroke-width="17" stroke-opacity="1" stroke-miterlimit="4"/><g clip-path="url(#cc7dc4a6a0)"><g clip-path="url(#60c13cfc33)"><g clip-path="url(#55db542684)"><path fill="#000000" d="M 380.4375 281.832031 L 493.953125 285.453125 L 491.988281 347.023438 L 378.472656 343.398438 Z M 380.4375 281.832031 " fill-opacity="1" fill-rule="nonzero"/></g></g></g><g clip-path="url(#85b11eec67)"><g clip-path="url(#30736a0649)"><g clip-path="url(#d240d2f0b1)"><path fill="#000000" d="M 392.4375 334.757812 L 505.953125 338.378906 L 503.988281 399.949219 L 390.472656 396.328125 Z M 392.4375 334.757812 " fill-opacity="1" fill-rule="nonzero"/></g></g></g><g clip-path="url(#92776e2072)"><g clip-path="url(#15319ef8c9)"><g clip-path="url(#8c81efc9cf)"><path fill="#000000" d="M 461.65625 372.039062 L 575.171875 375.660156 L 573.207031 437.226562 L 459.691406 433.605469 Z M 461.65625 372.039062 " fill-opacity="1" fill-rule="nonzero"/></g></g></g><g clip-path="url(#f9cc7d0866)"><g clip-path="url(#ef4a1ffafe)"><g clip-path="url(#33a4a65fe0)"><path fill="#000000" d="M 514.644531 412.488281 L 633.78125 416.289062 L 631.835938 477.285156 L 512.699219 473.484375 Z M 514.644531 412.488281 " fill-opacity="1" fill-rule="nonzero"/></g></g></g><g clip-path="url(#ec94ded9c7)"><g clip-path="url(#5bd990141a)"><g clip-path="url(#a7a45c7beb)"><path class="ninja-path-1" fill="" d="M 428.328125 308.515625 L 643.109375 422.335938 L 606.503906 491.410156 L 391.722656 377.589844 Z M 428.328125 308.515625 " fill-opacity="1" fill-rule="nonzero"/></g></g></g><g clip-path="url(#65b0d09bed)"><g clip-path="url(#0fdceea728)"><path fill="#000000" d="M 696.554688 444.882812 L 696.554688 331.386719 L 715.238281 331.386719 L 715.238281 444.882812 Z M 696.554688 444.882812 " fill-opacity="1" fill-rule="nonzero"/></g></g></svg>